HIERARCHY
ROOT root
{
	OFFSET 0.000000 0.000000 0.000000
	CHANNELS 6 Xposition Yposition Zposition Zrotation Yrotation Xrotation
	JOINT lhip
	{
		OFFSET 0.058581 -0.082280 -0.017664
		CHANNELS 3 Zrotation Yrotation Xrotation
		JOINT lknee
		{
			OFFSET 0.043451 -0.386469 0.008037
			CHANNELS 3 Zrotation Yrotation Xrotation
			JOINT lankle
			{
				OFFSET -0.014790 -0.426874 -0.037428
				CHANNELS 3 Zrotation Yrotation Xrotation
				JOINT ltoe
				{
					OFFSET 0.041054 -0.060286 0.122042
					CHANNELS 3 Zrotation Yrotation Xrotation
					End Site
					{
						OFFSET 0.000000 0.000000 0.000000
					}
				}
			}
		}
	}
	JOINT rhip
	{
		OFFSET -0.060310 -0.090513 -0.013543
		CHANNELS 3 Zrotation Yrotation Xrotation
		JOINT rknee
		{
			OFFSET -0.043257 -0.383688 -0.004843
			CHANNELS 3 Zrotation Yrotation Xrotation
			JOINT rankle
			{
				OFFSET 0.019056 -0.420046 -0.034562
				CHANNELS 3 Zrotation Yrotation Xrotation
				JOINT rtoe
				{
					OFFSET -0.034840 -0.062106 0.130323
					CHANNELS 3 Zrotation Yrotation Xrotation
					End Site
					{
						OFFSET 0.000000 0.000000 0.000000
					}
				}
			}
		}
	}
	JOINT lowerback
	{
		OFFSET 0.004439 0.124404 -0.038385
		CHANNELS 3 Zrotation Yrotation Xrotation
		JOINT upperback
		{
			OFFSET 0.004488 0.137956 0.026820
			CHANNELS 3 Zrotation Yrotation Xrotation
			JOINT chest
			{
				OFFSET -0.002265 0.056032 0.002855
				CHANNELS 3 Zrotation Yrotation Xrotation
				JOINT lowerneck
				{
					OFFSET -0.013390 0.211636 -0.033468
					CHANNELS 3 Zrotation Yrotation Xrotation
					JOINT upperneck
					{
						OFFSET 0.010113 0.088937 0.050410
						CHANNELS 3 Zrotation Yrotation Xrotation
						End Site
						{
							OFFSET 0.000000 0.000000 0.000000
						}
					}
				}
				JOINT lclavicle
				{
					OFFSET 0.071702 0.114000 -0.018898
					CHANNELS 3 Zrotation Yrotation Xrotation
					JOINT lshoulder
					{
						OFFSET 0.122921 0.045205 -0.019046
						CHANNELS 3 Zrotation Yrotation Xrotation
						JOINT lelbow
						{
							OFFSET 0.255332 -0.015649 -0.022946
							CHANNELS 3 Zrotation Yrotation Xrotation
							JOINT lwrist
							{
								OFFSET 0.265709 0.012698 -0.007375
								CHANNELS 3 Zrotation Yrotation Xrotation
								End Site
								{
									OFFSET 0.000000 0.000000 0.000000
								}
							}
						}
					}
				}
				JOINT rclavicle
				{
					OFFSET -0.082954 0.112472 -0.023707
					CHANNELS 3 Zrotation Yrotation Xrotation
					JOINT rshoulder
					{
						OFFSET -0.113228 0.046853 -0.008472
						CHANNELS 3 Zrotation Yrotation Xrotation
						JOINT relbow
						{
							OFFSET -0.260127 -0.014369 -0.031269
							CHANNELS 3 Zrotation Yrotation Xrotation
							JOINT rwrist
							{
								OFFSET -0.269108 0.006794 -0.006027
								CHANNELS 3 Zrotation Yrotation Xrotation
								End Site
								{
									OFFSET 0.000000 0.000000 0.000000
								}
							}
						}
					}
				}
			}
		}
	}
}
MOTION
Frames: 8
Frame Time: 0.033333
1.213355 -1.314046 0.887676 -88.020786 1.708411 87.212265 9.016001 14.416934 -27.354228 -9.323361 17.597370 57.187282 4.535263 26.254678 -38.278545 0.000000 -0.000000 0.000000 -13.498654 -22.934600 -25.734337 3.998153 -22.411239 64.398934 1.967699 -18.957737 -31.937467 0.000000 -0.000000 0.000000 1.740729 2.266400 17.492235 1.051320 -0.196250 -14.131969 1.169209 0.814301 0.274715 2.020130 2.818096 2.103108 -0.621079 -3.859994 -12.620456 13.913510 9.744943 -8.151726 -11.340633 -9.146983 -6.066527 -1.134837 -20.861212 13.120803 -30.760788 -5.050880 22.431101 -11.286969 -1.765978 -8.523278 5.323422 5.933730 -8.933263 8.822640 24.538549 25.031673 27.723110 7.334005 13.231119 
1.212725 -1.314351 0.885744 -88.082758 1.655378 87.204466 9.103391 14.489940 -27.502676 -9.125249 17.906616 57.820633 4.416748 25.906776 -38.644580 0.000000 -0.000000 0.000000 -13.746091 -22.977378 -25.880976 3.760499 -22.551892 65.088442 1.897270 -18.562277 -32.057413 0.000000 -0.000000 0.000000 1.599217 2.115269 17.405128 1.119279 -0.229820 -13.988768 1.142809 0.766761 0.335433 2.144890 0.306440 2.397556 -0.234789 -6.446999 -13.161912 14.081008 10.470467 -8.320724 -11.746403 -9.900552 -5.867675 -1.232843 -20.863709 13.110567 -31.243481 -4.684382 23.126668 -11.527729 -2.298918 -9.222031 5.977822 6.171806 -8.293116 8.176409 24.810227 25.332446 27.362777 7.358295 12.654970 
1.211982 -1.314685 0.883689 -88.138522 1.649263 87.105284 9.223954 14.601139 -27.549370 -8.998133 18.072705 58.405225 4.340606 25.715849 -38.956051 0.000000 -0.000000 0.000000 -13.881469 -23.057682 -25.938595 3.740996 -22.458574 65.635694 1.922632 -18.518741 -32.250325 0.000000 -0.000000 0.000000 1.580536 1.978520 17.520967 1.181863 -0.289443 -14.180182 1.056541 0.706617 0.531631 2.175744 -2.428075 2.682820 0.178588 -9.028020 -13.571274 14.124603 10.769323 -8.402390 -11.980025 -10.186719 -5.834592 -1.362196 -20.961991 12.798115 -31.519288 -4.474797 23.387261 -11.594918 -2.362297 -9.695519 6.107304 6.104593 -8.274335 8.208814 24.559309 25.244988 27.509463 7.253922 12.703207 
1.211023 -1.314725 0.881384 -88.154822 1.694304 86.989567 9.352068 14.587842 -27.633892 -8.803896 18.134717 59.070102 4.257608 25.686929 -39.304293 0.000000 -0.000000 0.000000 -13.916696 -23.039137 -26.018102 3.608421 -22.397791 66.291646 1.927202 -18.614122 -32.498996 0.000000 -0.000000 0.000000 1.627254 1.854441 17.630227 1.231201 -0.329081 -14.311460 0.962163 0.530684 0.664053 2.291724 -5.772780 2.795336 0.583697 -12.120386 -13.909936 13.996142 10.974213 -8.513558 -12.359782 -10.396142 -5.935164 -1.103626 -21.084691 12.099159 -31.689256 -4.286670 23.679118 -11.673980 -2.364636 -10.161169 6.390253 5.756311 -8.007140 8.401622 24.526322 25.577420 27.555977 7.255542 12.736951 
1.210510 -1.314611 0.880191 -88.159908 1.695583 86.907139 9.374865 14.488756 -27.682285 -8.668859 18.149472 59.435153 4.228114 25.756016 -39.478943 0.000000 -0.000000 0.000000 -13.950552 -22.971752 -26.064865 3.511971 -22.345700 66.647756 1.921119 -18.688857 -32.609965 0.000000 -0.000000 0.000000 1.612078 1.785205 17.709671 1.267212 -0.373383 -14.329895 0.908264 0.422771 0.689798 2.347728 -7.461091 2.717305 0.837530 -13.584459 -14.040881 13.836740 11.069715 -8.537388 -12.501632 -10.502663 -5.944132 -0.924050 -21.061448 11.702925 -31.624183 -4.279031 23.751911 -11.548336 -2.380573 -10.385488 6.531258 5.565220 -7.734231 8.480501 24.670997 25.875210 27.467447 7.292624 12.765599 
1.209931 -1.314406 0.878950 -88.207890 1.696802 86.809883 9.393628 14.346466 -27.728844 -8.481142 18.167385 59.839279 4.191007 25.890502 -39.660707 0.000000 -0.000000 0.000000 -13.900621 -22.796306 -26.156200 3.351483 -22.215270 67.020390 1.897129 -18.847330 -32.740037 0.000000 -0.000000 0.000000 1.532799 1.685781 17.798123 1.353955 -0.454187 -14.278262 0.875734 0.271310 0.647284 2.494596 -9.032528 2.566368 1.058801 -14.934347 -14.210612 13.728375 11.207673 -8.488697 -12.747039 -10.575903 -5.939536 -0.775889 -20.914232 11.423983 -31.705544 -4.129103 23.873388 -11.403780 -2.380019 -10.559734 6.865638 5.516661 -7.473776 8.446719 24.754891 25.964262 27.364467 7.329799 12.678567 
1.209431 -1.314097 0.878180 -88.311906 1.724657 86.705684 9.438635 14.237515 -27.709858 -8.317270 18.144267 60.099882 4.151107 26.041416 -39.762202 0.000000 -0.000000 0.000000 -13.793053 -22.584480 -26.204261 3.220558 -22.092659 67.246754 1.882813 -18.986700 -32.804821 0.000000 -0.000000 0.000000 1.423723 1.601807 17.887224 1.454720 -0.528858 -14.244419 0.909354 0.146311 0.663696 2.697298 -9.880244 2.387845 1.169935 -15.638610 -14.389025 13.661076 11.300786 -8.464514 -13.062265 -10.584958 -5.973756 -0.593114 -20.706017 11.171170 -31.837157 -3.976200 23.906676 -11.284918 -2.370391 -10.636688 7.227210 5.585579 -7.280643 8.326354 24.786390 26.133208 27.273172 7.255894 12.800400 
1.209032 -1.313820 0.877914 -88.424806 1.734291 86.626764 9.445040 14.114683 -27.651960 -8.185668 18.100670 60.189723 4.122720 26.178291 -39.768280 0.000000 -0.000000 0.000000 -13.734855 -22.409142 -26.188469 3.177263 -22.020803 67.310841 1.870255 -19.066959 -32.808155 0.000000 -0.000000 0.000000 1.299358 1.549974 17.922155 1.522342 -0.604460 -14.166296 0.977450 0.080222 0.683834 2.903066 -10.225442 2.214481 1.234298 -15.842351 -14.509065 13.550184 11.303673 -8.492272 -13.315748 -10.572140 -6.016544 -0.376678 -20.580691 10.876110 -31.964681 -3.893365 23.903149 -11.211003 -2.346625 -10.672525 7.522921 5.601086 -7.099814 8.289846 24.733582 26.240100 27.397231 7.202029 12.871483 
